<svg width="16" height="16" viewBox="0 0 32 32" fill="none" xmlns="http://www.w3.org/2000/svg">
    <path d="M6.5 2H20.59C20.8538 2.00376 21.1054 2.11159 21.29 2.3L26.71 7.7C26.8027 7.79344 26.876 7.90426 26.9258 8.02609C26.9755 8.14793 27.0008 8.27839 27 8.41V28.5C27 29.33 26.33 30 25.5 30H6.5C6.10218 30 5.72064 29.842 5.43934 29.5607C5.15804 29.2794 5 28.8978 5 28.5V3.5C5 2.67 5.67 2 6.5 2Z"
          fill="#3370FF"/>
    <path d="M21.3 2.3L26.7 7.7C26.7879 7.78622 26.8591 7.88792 26.91 8H22.5C22.1022 8 21.7206 7.84196 21.4393 7.56066C21.158 7.27935 21 6.89782 21 6.5V2.09C21.1 2.14 21.2 2.21 21.3 2.29V2.3Z"
          fill="#245BDB"/>
    <path d="M15.98 16.6L13.93 24.17C13.91 24.27 13.83 24.32 13.73 24.32H12.53C12.485 24.3197 12.4413 24.305 12.4052 24.278C12.3692 24.251 12.3429 24.2131 12.33 24.17L9.55 14.37C9.5425 14.3394 9.54197 14.3075 9.54846 14.2767C9.55495 14.2458 9.56829 14.2169 9.5875 14.1919C9.60671 14.1669 9.63129 14.1466 9.65942 14.1324C9.68755 14.1182 9.7185 14.1106 9.75 14.11H10.96C11.06 14.11 11.14 14.17 11.16 14.27L13.14 21.9L15.19 14.26C15.21 14.17 15.29 14.11 15.39 14.11H16.57C16.67 14.11 16.75 14.17 16.77 14.26L18.81 21.9L20.78 14.27C20.81 14.17 20.89 14.11 20.98 14.11H22.19C22.2226 14.1102 22.2547 14.118 22.2838 14.1327C22.3129 14.1475 22.3381 14.1688 22.3575 14.195C22.3769 14.2212 22.3899 14.2515 22.3956 14.2836C22.4012 14.3158 22.3993 14.3487 22.39 14.38L19.62 24.18C19.6 24.26 19.52 24.32 19.42 24.32H18.22C18.175 24.3197 18.1313 24.305 18.0952 24.278C18.0592 24.251 18.0329 24.2131 18.02 24.17L15.98 16.6Z"
          fill="white"/>
</svg>
